<?xml version="1.0" encoding="utf-8"?>
<!-- Generator: Adobe Illustrator 15.0.0, SVG Export Plug-In . SVG Version: 6.00 Build 0)  -->
<!DOCTYPE svg PUBLIC "-//W3C//DTD SVG 1.1//EN" "http://www.w3.org/Graphics/SVG/1.1/DTD/svg11.dtd">
<svg version="1.1" id="Layer_1" xmlns="http://www.w3.org/2000/svg" xmlns:xlink="http://www.w3.org/1999/xlink" x="0px" y="0px"
	 width="21px" height="21px" viewBox="0 0 21 21" enable-background="new 0 0 21 21" xml:space="preserve">
<path fill="#EE3643" d="M13.273,10.5l7.422-7.422c0.389-0.389,0.389-1.025,0-1.414l-1.359-1.359c-0.389-0.389-1.025-0.389-1.414,0
	L10.5,7.727L3.078,0.305c-0.389-0.389-1.025-0.389-1.414,0L0.305,1.664c-0.389,0.389-0.389,1.025,0,1.414L7.727,10.5l-7.421,7.422
	c-0.389,0.389-0.389,1.025,0,1.414l1.359,1.359c0.389,0.389,1.025,0.389,1.414,0l7.422-7.422l7.422,7.422
	c0.389,0.389,1.025,0.389,1.414,0l1.359-1.359c0.389-0.389,0.389-1.025,0-1.414L13.273,10.5z"/>
</svg>
